<svg xmlns="http://www.w3.org/2000/svg" viewBox="0 0 309.86 100"><defs><style>.cls-1{fill:#fff;}.cls-2{font-size:42.74px;fill:#e8d008;font-family:Quicksand-Medium, Quicksand;}.cls-3{font-size:60px;font-family:Quicksand-Bold, Quicksand;font-weight:700;}.cls-4{letter-spacing:0em;}</style></defs><title>arrowAsset 18</title><g id="Layer_2" data-name="Layer 2"><g id="Layer_1-2" data-name="Layer 1"><circle cx="50" cy="50" r="50"/><path class="cls-1" d="M24.55,26.26A2.52,2.52,0,1,1,22,28.78v-.36a5,5,0,0,1,5-5v1.43a3.57,3.57,0,0,0-2.54,1.06,3.31,3.31,0,0,0-.35.41A2.47,2.47,0,0,1,24.55,26.26Zm6.47,0a2.52,2.52,0,1,1-2.52,2.52v-.36a5,5,0,0,1,5-5v1.43A3.57,3.57,0,0,0,31,25.88a4.59,4.59,0,0,0-.36.41A2.6,2.6,0,0,1,31,26.26Z"/><path class="cls-1" d="M80.49,76.62A2.52,2.52,0,1,1,83,74.1v.36a5,5,0,0,1-5,5V78.06a3.6,3.6,0,0,0,2.54-1,4.71,4.71,0,0,0,.36-.42A2.6,2.6,0,0,1,80.49,76.62Zm-6.47,0a2.52,2.52,0,1,1,2.52-2.52v.36a5,5,0,0,1-5,5V78.06a3.6,3.6,0,0,0,2.54-1,4.71,4.71,0,0,0,.36-.42A2.6,2.6,0,0,1,74,76.62Z"/><text class="cls-2" transform="translate(33.23 62.46)">Q</text><text class="cls-3" transform="translate(116.18 66.41)">Q<tspan class="cls-4" x="45.3" y="0">t</tspan><tspan x="69.54" y="0">oniq</tspan></text></g></g></svg>