<?xml version="1.0" encoding="utf-8"?>
<!-- Generator: Adobe Illustrator 22.0.1, SVG Export Plug-In . SVG Version: 6.00 Build 0)  -->
<svg version="1.1" id="Layer_1" xmlns="http://www.w3.org/2000/svg" xmlns:xlink="http://www.w3.org/1999/xlink" x="0px" y="0px"
	 viewBox="0 0 309.9 100" style="enable-background:new 0 0 309.9 100;" xml:space="preserve">
<style type="text/css">
	.st0{fill:#FFFFFF;}
	.st1{enable-background:new    ;}
	.st2{fill:#E8D008;}
</style>
<title>arrowAsset 18</title>
<g>
	<circle cx="50" cy="50" r="50"/>
	<path class="st0" d="M24.5,26.3c1.4,0,2.5,1.2,2.5,2.5c0,1.4-1.2,2.5-2.5,2.5c-1.4,0-2.5-1.1-2.5-2.5v-0.4c0-2.8,2.2-5,5-5v1.4
		c-1,0-1.9,0.4-2.5,1.1c-0.1,0.1-0.2,0.3-0.4,0.4C24.3,26.3,24.4,26.3,24.5,26.3z M31,26.3c1.4,0,2.5,1.1,2.5,2.5s-1.1,2.5-2.5,2.5
		c-1.4,0-2.5-1.1-2.5-2.5v-0.4c0-2.8,2.2-5,5-5c0,0,0,0,0,0v1.4c-0.9,0-1.8,0.4-2.5,1c-0.1,0.1-0.2,0.3-0.4,0.4
		C30.8,26.3,30.9,26.3,31,26.3L31,26.3z"/>
	<path class="st0" d="M80.5,76.6c-1.4,0-2.5-1.1-2.5-2.5c0-1.4,1.1-2.5,2.5-2.5c1.4,0,2.5,1.1,2.5,2.5c0,0,0,0,0,0v0.4
		c0,2.8-2.2,5-5,5v-1.4c0.9,0,1.9-0.3,2.5-1c0.1-0.1,0.2-0.3,0.4-0.4C80.8,76.6,80.6,76.6,80.5,76.6z M74,76.6
		c-1.4,0-2.5-1.1-2.5-2.5s1.1-2.5,2.5-2.5c1.4,0,2.5,1.1,2.5,2.5v0v0.4c0,2.8-2.2,5-5,5v-1.4c0.9,0,1.9-0.3,2.5-1
		c0.1-0.1,0.2-0.3,0.4-0.4C74.3,76.6,74.1,76.6,74,76.6L74,76.6z"/>
	<g class="st1">
		<g>
			<path class="st2" d="M66.2,64.7c0.4,0.4,0.6,0.8,0.6,1.3c0,0.7-0.5,1.5-1.4,2.1c-0.9,0.7-2,1.2-3.3,1.7c-1.3,0.4-2.5,0.6-3.6,0.6
				c-1.7,0-3.1-0.2-4.2-0.5c-1.1-0.3-2.2-0.8-3.4-1.5c-0.9-0.5-1.6-0.8-2.2-1c-0.6-0.2-1.2-0.3-2-0.3c-0.3,0-0.7,0-1,0.1
				s-0.6,0.2-0.9,0.4c-0.7,0.3-1.3,0.5-1.9,0.5c-0.5,0-1-0.2-1.4-0.6S41,66.7,41,66.2c0-0.9,0.4-1.5,1.2-1.8l4.8-1.8
				c-2.3-0.4-4.4-1.3-6.2-2.7c-1.8-1.4-3.2-3.2-4.2-5.4c-1-2.2-1.5-4.5-1.5-7.1c0-2.9,0.6-5.5,1.9-7.8c1.2-2.3,3-4.2,5.2-5.5
				c2.2-1.4,4.7-2,7.4-2c2.8,0,5.2,0.7,7.4,2c2.2,1.4,3.9,3.2,5.2,5.5c1.2,2.3,1.9,4.9,1.9,7.8c0,2.5-0.5,4.8-1.4,6.9
				c-1,2.1-2.3,3.9-4,5.3c-1.7,1.4-3.7,2.4-5.9,2.8l-3.2,1.2c0.7,0.1,1.4,0.2,1.9,0.5c0.6,0.2,1.3,0.6,2.1,1c1,0.5,1.9,0.9,2.7,1.2
				c0.8,0.3,1.6,0.4,2.6,0.4c0.8,0,1.5-0.1,2.1-0.3c0.6-0.2,1.2-0.5,1.7-0.9c0.2-0.2,0.5-0.4,0.8-0.6c0.3-0.2,0.6-0.4,0.8-0.6
				c0.2-0.1,0.5-0.2,0.7-0.2C65.4,64.2,65.8,64.4,66.2,64.7z M40.8,53.3c0.9,1.7,2,3.1,3.6,4.1c1.5,1,3.3,1.5,5.2,1.5
				c1.9,0,3.7-0.5,5.2-1.5c1.5-1,2.7-2.3,3.6-4.1c0.9-1.7,1.3-3.7,1.3-5.8s-0.4-4.1-1.3-5.8c-0.9-1.7-2-3.1-3.6-4.1
				c-1.5-1-3.3-1.5-5.2-1.5c-1.9,0-3.7,0.5-5.2,1.5c-1.5,1-2.7,2.3-3.6,4c-0.9,1.7-1.3,3.7-1.3,5.8C39.5,49.6,39.9,51.6,40.8,53.3z"
				/>
		</g>
	</g>
	<g>
		<g class="st1">
			<g>
				<path d="M161.9,69.2c0.7,0.7,1.1,1.5,1.1,2.4c0,1.2-0.7,2.3-2,3.3c-1.3,1.1-3,1.9-4.9,2.5c-1.9,0.6-3.7,1-5.2,1
					c-2.6,0-4.6-0.2-6.1-0.8c-1.5-0.5-3-1.2-4.5-2.1c-1-0.6-1.8-1-2.5-1.3c-0.6-0.3-1.4-0.4-2.3-0.4c-0.5,0-0.9,0.1-1.2,0.2
					c-0.3,0.1-0.7,0.3-1.3,0.5c-0.5,0.3-1,0.5-1.4,0.6c-0.4,0.1-1,0.2-1.7,0.2c-1,0-1.8-0.4-2.5-1.1c-0.7-0.7-1-1.6-1-2.5
					c0-1.6,0.7-2.6,2.1-3.1l5.9-2.2c-3.1-0.7-5.9-2-8.3-4s-4.3-4.5-5.6-7.5c-1.3-3-2-6.2-2-9.6c0-4,0.9-7.6,2.6-10.9
					c1.7-3.3,4.2-5.9,7.3-7.8c3.1-1.9,6.6-2.9,10.5-2.9c3.9,0,7.4,1,10.5,2.9c3.1,1.9,5.5,4.5,7.3,7.8c1.8,3.3,2.6,6.9,2.6,10.9
					c0,3.4-0.7,6.6-2,9.6c-1.3,3-3.2,5.5-5.6,7.5c-2.4,2-5.2,3.4-8.3,4l-3.7,1.4c0.9,0.1,1.8,0.3,2.5,0.7c0.8,0.3,1.7,0.8,2.7,1.3
					c1.2,0.7,2.3,1.2,3.2,1.5c0.9,0.3,2,0.5,3.1,0.5c1,0,1.9-0.2,2.6-0.5c0.7-0.3,1.4-0.7,2.1-1.3c0.2-0.2,0.6-0.5,1.1-0.9
					c0.5-0.4,0.9-0.7,1.3-0.9c0.4-0.2,0.8-0.3,1.2-0.3C160.4,68.1,161.2,68.5,161.9,69.2z M128,52.7c1.1,2.2,2.5,3.9,4.4,5.2
					c1.9,1.3,4.1,1.9,6.5,1.9c2.4,0,4.6-0.6,6.5-1.9c1.9-1.3,3.4-3,4.5-5.2c1.1-2.2,1.6-4.6,1.6-7.3c0-2.7-0.5-5.1-1.6-7.3
					c-1.1-2.2-2.6-3.9-4.5-5.2c-1.9-1.3-4.1-1.9-6.5-1.9c-2.4,0-4.6,0.6-6.5,1.9c-1.9,1.3-3.4,3-4.4,5.2c-1.1,2.2-1.6,4.6-1.6,7.3
					C126.4,48.1,126.9,50.5,128,52.7z"/>
			</g>
		</g>
		<g class="st1">
			<g>
				<path d="M182.4,60.4c0.5,0.5,0.7,1.2,0.7,2.1c0,1.1-0.6,2-1.8,2.7c-1.2,0.7-2.5,1.1-4,1.1c-2.5,0-4.6-0.5-6.3-1.6
					c-1.7-1.1-2.5-3.3-2.5-6.8V41.5h-2.8c-1,0-1.8-0.3-2.4-1c-0.6-0.6-1-1.4-1-2.4c0-0.9,0.3-1.7,1-2.3c0.6-0.6,1.4-0.9,2.4-0.9h2.8
					v-3.8c0-1,0.3-1.9,1-2.6c0.7-0.7,1.6-1,2.6-1c1,0,1.8,0.4,2.5,1c0.7,0.7,1,1.6,1,2.6v3.8h4.3c1,0,1.8,0.3,2.4,1
					c0.6,0.6,1,1.4,1,2.4c0,0.9-0.3,1.7-1,2.3c-0.6,0.6-1.4,0.9-2.4,0.9h-4.3v16.3c0,0.8,0.2,1.5,0.7,1.8c0.4,0.4,1,0.6,1.8,0.6
					c0.3,0,0.8-0.1,1.3-0.2c0.5-0.2,0.9-0.3,1.4-0.3C181.4,59.6,181.9,59.9,182.4,60.4z"/>
			</g>
		</g>
		<g class="st1">
			<g>
				<path d="M218.3,59c-1.4,2.5-3.4,4.5-5.9,5.9c-2.5,1.4-5.2,2.1-8.2,2.1c-3,0-5.8-0.7-8.3-2.1c-2.5-1.4-4.4-3.4-5.9-5.9
					c-1.4-2.5-2.2-5.4-2.2-8.6s0.7-6.1,2.2-8.6c1.4-2.5,3.4-4.5,5.9-5.9c2.5-1.4,5.2-2.1,8.3-2.1c3,0,5.8,0.7,8.2,2.1
					c2.5,1.4,4.5,3.4,5.9,5.9c1.4,2.5,2.2,5.4,2.2,8.6S219.7,56.5,218.3,59z M212,45.1c-0.8-1.5-1.9-2.7-3.3-3.6
					c-1.4-0.8-2.9-1.3-4.6-1.3c-1.7,0-3.2,0.4-4.6,1.3s-2.5,2-3.3,3.6c-0.8,1.5-1.2,3.3-1.2,5.2s0.4,3.7,1.2,5.2
					c0.8,1.5,1.9,2.7,3.3,3.5s2.9,1.3,4.6,1.3c1.7,0,3.2-0.4,4.6-1.3c1.4-0.8,2.5-2,3.3-3.5c0.8-1.5,1.2-3.3,1.2-5.2
					S212.8,46.7,212,45.1z"/>
				<path d="M252.1,37.3c1.6,2.4,2.3,5.8,2.3,10.1v15.4c0,1-0.3,1.9-1,2.6c-0.7,0.7-1.5,1-2.6,1s-1.9-0.3-2.6-1
					c-0.7-0.7-1-1.6-1-2.6V47.4c0-2.2-0.5-3.9-1.4-5.2c-0.9-1.3-2.5-1.9-4.7-1.9c-2.3,0-4.1,0.7-5.5,2c-1.3,1.3-2,3-2,5.1v15.4
					c0,1-0.3,1.9-1,2.6c-0.7,0.7-1.5,1-2.6,1s-1.9-0.3-2.6-1c-0.7-0.7-1-1.6-1-2.6V38c0-1,0.3-1.9,1-2.6c0.7-0.7,1.5-1,2.6-1
					s1.9,0.4,2.6,1c0.7,0.7,1,1.6,1,2.6v1c1.1-1.4,2.5-2.7,4.2-3.7s3.6-1.6,5.7-1.6C247.7,33.7,250.5,34.9,252.1,37.3z"/>
				<path d="M262.5,29.8c-0.6-0.4-0.8-1.2-0.8-2.3v-1.1c0-1.1,0.3-1.9,0.9-2.3c0.6-0.4,1.6-0.7,2.9-0.7c1.4,0,2.4,0.2,2.9,0.7
					c0.6,0.4,0.8,1.2,0.8,2.3v1.1c0,1.2-0.3,2-0.9,2.4c-0.6,0.4-1.6,0.6-3,0.6C264,30.4,263,30.2,262.5,29.8z M268,65.4
					c-0.7,0.7-1.5,1-2.6,1s-1.9-0.3-2.6-1c-0.7-0.7-1-1.6-1-2.6V38c0-1,0.3-1.9,1-2.6c0.7-0.7,1.5-1,2.6-1s1.9,0.4,2.6,1
					c0.7,0.7,1,1.6,1,2.6v24.8C269,63.8,268.7,64.7,268,65.4z"/>
				<path d="M304.9,35.3c0.7,0.7,1,1.6,1,2.6v36.8c0,1-0.3,1.9-1,2.6c-0.7,0.7-1.5,1-2.6,1s-1.9-0.4-2.6-1c-0.7-0.7-1-1.6-1-2.6
					V62.9c-1,1.1-2.4,2.1-4,2.9c-1.7,0.8-3.5,1.2-5.4,1.2c-2.8,0-5.3-0.7-7.5-2.1c-2.2-1.4-4-3.4-5.3-5.9c-1.3-2.5-1.9-5.4-1.9-8.6
					s0.6-6.1,1.9-8.6c1.3-2.5,3-4.5,5.2-5.9c2.2-1.4,4.7-2.1,7.3-2.1c2,0,3.8,0.4,5.5,1.1s3.1,1.6,4.2,2.7c0.1-0.9,0.5-1.7,1.2-2.3
					c0.7-0.6,1.5-0.9,2.4-0.9C303.4,34.3,304.3,34.7,304.9,35.3z M296.6,57.6c1.6-1.9,2.5-4.3,2.5-7.2c0-2.9-0.8-5.3-2.5-7.2
					c-1.6-1.9-3.8-2.9-6.4-2.9c-2.6,0-4.7,1-6.3,2.9c-1.6,1.9-2.5,4.3-2.5,7.2c0,2.9,0.8,5.3,2.4,7.2c1.6,1.9,3.7,2.8,6.3,2.8
					S295,59.5,296.6,57.6z"/>
			</g>
		</g>
	</g>
</g>
</svg>
