<?xml version="1.0" encoding="utf-8"?>
<!-- Generator: Adobe Illustrator 22.0.1, SVG Export Plug-In . SVG Version: 6.00 Build 0)  -->
<svg version="1.1" id="Layer_1" xmlns="http://www.w3.org/2000/svg" xmlns:xlink="http://www.w3.org/1999/xlink" x="0px" y="0px"
	 viewBox="0 0 221.8 80" style="enable-background:new 0 0 221.8 80;" xml:space="preserve">
<style type="text/css">
	.st0{fill:#E8D008;}
	.st1{fill:#FFFFFF;}
	.st2{enable-background:new    ;}
</style>
<title>arrowAsset 17</title>
<g>
	<circle class="st0" cx="40" cy="40" r="40"/>
	<path class="st1" d="M19.6,21c1.1,0,2,0.9,2,2s-0.9,2-2,2s-2-0.9-2-2v-0.3c0-2.2,1.8-4,4-4v1.1c-0.8,0-1.5,0.3-2,0.8L19.3,21
		L19.6,21z M24.8,21c1.1,0,2,0.9,2,2s-0.9,2-2,2s-2-0.9-2-2v-0.3c0-2.2,1.8-4,4-4v1.1c-0.8,0-1.5,0.3-2,0.8
		c-0.1,0.1-0.2,0.2-0.3,0.3L24.8,21z"/>
	<path class="st1" d="M64.4,61.3c-1.1,0-2-0.9-2-2s0.9-2,2-2s2,0.9,2,2v0.3c0,2.2-1.8,4-4,4v-1.1c0.8,0,1.5-0.3,2-0.8
		c0.1-0.1,0.2-0.2,0.3-0.3C64.6,61.3,64.5,61.3,64.4,61.3z M59.2,61.3c-1.1,0-2-0.9-2-2s0.9-2,2-2s2,0.9,2,2v0.3c0,2.2-1.8,4-4,4
		v-1.1c0.8,0,1.5-0.3,2-0.8c0.1-0.1,0.2-0.2,0.3-0.3C59.4,61.3,59.3,61.3,59.2,61.3z"/>
	<g class="st2">
		<g>
			<path d="M53,51.8c0.3,0.3,0.5,0.7,0.5,1.1c0,0.6-0.4,1.2-1.1,1.7c-0.7,0.5-1.6,1-2.7,1.3s-2,0.5-2.9,0.5c-1.4,0-2.5-0.1-3.4-0.4
				s-1.8-0.7-2.7-1.2C40,54.4,39.4,54.2,39,54c-0.5-0.2-1-0.3-1.6-0.3c-0.3,0-0.5,0-0.8,0.1c-0.2,0.1-0.5,0.2-0.7,0.3
				c-0.5,0.3-1.1,0.4-1.5,0.4c-0.4,0-0.8-0.2-1.1-0.5c-0.3-0.3-0.5-0.7-0.5-1.1c0-0.7,0.3-1.2,0.9-1.4l3.8-1.4
				c-1.8-0.3-3.5-1-4.9-2.2c-1.4-1.1-2.6-2.6-3.4-4.3c-0.8-1.7-1.2-3.6-1.2-5.6c0-2.3,0.5-4.4,1.5-6.3c1-1.9,2.4-3.3,4.1-4.4
				c1.8-1.1,3.7-1.6,5.9-1.6c2.2,0,4.2,0.5,5.9,1.6c1.8,1.1,3.1,2.6,4.1,4.4c1,1.9,1.5,4,1.5,6.3c0,2-0.4,3.9-1.1,5.5
				c-0.8,1.7-1.8,3.1-3.2,4.2c-1.4,1.1-2.9,1.9-4.7,2.3l-2.6,1c0.6,0.1,1.1,0.2,1.6,0.4c0.5,0.2,1,0.5,1.7,0.8
				c0.8,0.4,1.5,0.7,2.2,0.9c0.6,0.2,1.3,0.3,2.1,0.3c0.7,0,1.2-0.1,1.7-0.3c0.5-0.2,0.9-0.4,1.4-0.8c0.2-0.1,0.4-0.3,0.6-0.5
				s0.5-0.3,0.6-0.4c0.2-0.1,0.4-0.2,0.6-0.2C52.3,51.3,52.6,51.5,53,51.8z M32.6,42.6c0.7,1.4,1.6,2.5,2.9,3.2s2.6,1.2,4.2,1.2
				c1.5,0,2.9-0.4,4.2-1.2c1.2-0.8,2.2-1.9,2.9-3.2c0.7-1.4,1-2.9,1-4.6c0-1.7-0.3-3.3-1-4.6c-0.7-1.4-1.6-2.5-2.9-3.2
				c-1.2-0.8-2.6-1.2-4.2-1.2c-1.6,0-2.9,0.4-4.2,1.2c-1.2,0.8-2.2,1.9-2.9,3.2c-0.7,1.4-1,2.9-1,4.7C31.6,39.7,31.9,41.3,32.6,42.6
				z"/>
		</g>
	</g>
	<g>
		<g class="st2">
			<g>
				<path class="st1" d="M123.2,52.8c0.5,0.5,0.7,1,0.7,1.6c0,0.8-0.4,1.5-1.3,2.2c-0.9,0.7-2,1.3-3.3,1.7c-1.3,0.4-2.4,0.6-3.5,0.6
					c-1.7,0-3.1-0.2-4.1-0.5c-1-0.3-2-0.8-3-1.4c-0.7-0.4-1.2-0.7-1.6-0.9c-0.4-0.2-0.9-0.3-1.5-0.3c-0.3,0-0.6,0-0.8,0.1
					c-0.2,0.1-0.5,0.2-0.8,0.4c-0.3,0.2-0.7,0.3-1,0.4c-0.3,0.1-0.7,0.1-1.1,0.1c-0.6,0-1.2-0.2-1.7-0.7c-0.5-0.5-0.7-1-0.7-1.7
					c0-1,0.5-1.7,1.4-2.1l4-1.5c-2.1-0.5-3.9-1.4-5.5-2.7c-1.6-1.3-2.8-3-3.7-5s-1.3-4.1-1.3-6.4c0-2.6,0.6-5.1,1.7-7.3
					c1.2-2.2,2.8-3.9,4.8-5.2c2.1-1.3,4.4-1.9,7-1.9c2.6,0,4.9,0.6,7,1.9c2.1,1.3,3.7,3,4.9,5.2c1.2,2.2,1.8,4.6,1.8,7.3
					c0,2.3-0.4,4.4-1.3,6.4c-0.9,2-2.1,3.6-3.8,5c-1.6,1.3-3.5,2.2-5.5,2.7l-2.4,0.9c0.6,0.1,1.2,0.2,1.7,0.4
					c0.5,0.2,1.1,0.5,1.8,0.9c0.8,0.5,1.5,0.8,2.2,1c0.6,0.2,1.3,0.3,2.1,0.3c0.7,0,1.2-0.1,1.7-0.3c0.5-0.2,0.9-0.5,1.4-0.9
					c0.2-0.1,0.4-0.3,0.7-0.6c0.3-0.3,0.6-0.4,0.9-0.6c0.3-0.1,0.5-0.2,0.8-0.2C122.2,52.1,122.7,52.3,123.2,52.8z M100.5,41.8
					c0.7,1.5,1.7,2.6,3,3.5s2.7,1.3,4.3,1.3c1.6,0,3-0.4,4.3-1.3c1.3-0.9,2.3-2,3-3.5c0.7-1.5,1.1-3.1,1.1-4.9
					c0-1.8-0.4-3.4-1.1-4.9c-0.7-1.5-1.7-2.6-3-3.5c-1.3-0.9-2.7-1.3-4.3-1.3c-1.6,0-3.1,0.4-4.3,1.3s-2.3,2-3,3.5s-1.1,3.1-1.1,4.9
					C99.5,38.7,99.8,40.4,100.5,41.8z"/>
			</g>
		</g>
		<g class="st2">
			<g>
				<path class="st1" d="M136.8,47c0.3,0.4,0.5,0.8,0.5,1.4c0,0.7-0.4,1.3-1.2,1.8c-0.8,0.5-1.7,0.7-2.7,0.7c-1.7,0-3-0.4-4.2-1.1
					c-1.1-0.7-1.7-2.2-1.7-4.5v-11h-1.8c-0.6,0-1.2-0.2-1.6-0.6c-0.4-0.4-0.6-1-0.6-1.6c0-0.6,0.2-1.1,0.6-1.5
					c0.4-0.4,1-0.6,1.6-0.6h1.8v-2.6c0-0.7,0.2-1.3,0.7-1.7s1-0.7,1.7-0.7c0.7,0,1.2,0.2,1.7,0.7s0.7,1,0.7,1.7v2.6h2.8
					c0.6,0,1.2,0.2,1.6,0.6c0.4,0.4,0.6,1,0.6,1.6c0,0.6-0.2,1.1-0.6,1.5s-1,0.6-1.6,0.6h-2.8v10.8c0,0.6,0.1,1,0.4,1.2
					c0.3,0.3,0.7,0.4,1.2,0.4c0.2,0,0.5-0.1,0.9-0.2c0.3-0.1,0.6-0.2,0.9-0.2C136.2,46.4,136.5,46.6,136.8,47z"/>
			</g>
		</g>
		<g class="st2">
			<g>
				<path class="st1" d="M160.8,46c-1,1.7-2.3,3-3.9,3.9c-1.7,0.9-3.5,1.4-5.5,1.4c-2,0-3.9-0.5-5.5-1.4s-3-2.2-3.9-3.9
					c-1-1.7-1.4-3.6-1.4-5.7c0-2.1,0.5-4,1.4-5.7s2.3-3,3.9-4s3.5-1.4,5.5-1.4c2,0,3.8,0.5,5.5,1.4c1.7,0.9,3,2.3,3.9,4
					c1,1.7,1.4,3.6,1.4,5.7C162.2,42.4,161.7,44.3,160.8,46z M156.6,36.8c-0.5-1-1.3-1.8-2.2-2.4c-0.9-0.6-1.9-0.8-3.1-0.8
					s-2.1,0.3-3.1,0.8c-0.9,0.6-1.7,1.4-2.2,2.4c-0.5,1-0.8,2.2-0.8,3.5c0,1.3,0.3,2.5,0.8,3.5c0.5,1,1.3,1.8,2.2,2.4
					c0.9,0.6,1.9,0.8,3.1,0.8s2.1-0.3,3.1-0.8c0.9-0.6,1.7-1.3,2.2-2.4c0.5-1,0.8-2.2,0.8-3.5C157.4,39,157.1,37.8,156.6,36.8z"/>
				<path class="st1" d="M183.3,31.6c1,1.6,1.6,3.8,1.6,6.7v10.2c0,0.7-0.2,1.3-0.7,1.7c-0.5,0.5-1,0.7-1.7,0.7s-1.3-0.2-1.7-0.7
					c-0.5-0.5-0.7-1-0.7-1.7V38.3c0-1.5-0.3-2.6-0.9-3.5c-0.6-0.8-1.7-1.3-3.2-1.3c-1.5,0-2.8,0.4-3.6,1.3s-1.3,2-1.3,3.4v10.2
					c0,0.7-0.2,1.3-0.7,1.7c-0.5,0.5-1,0.7-1.7,0.7c-0.7,0-1.3-0.2-1.7-0.7c-0.5-0.5-0.7-1-0.7-1.7V32c0-0.7,0.2-1.3,0.7-1.7
					c0.5-0.5,1-0.7,1.7-0.7c0.7,0,1.3,0.2,1.7,0.7c0.5,0.5,0.7,1,0.7,1.7v0.7c0.7-1,1.7-1.8,2.8-2.5s2.4-1,3.8-1
					C180.4,29.1,182.2,29.9,183.3,31.6z"/>
				<path class="st1" d="M190.2,26.5c-0.4-0.3-0.6-0.8-0.6-1.6v-0.8c0-0.7,0.2-1.3,0.6-1.6c0.4-0.3,1-0.4,1.9-0.4
					c0.9,0,1.6,0.1,2,0.4c0.4,0.3,0.6,0.8,0.6,1.6v0.8c0,0.8-0.2,1.3-0.6,1.6s-1,0.4-2,0.4C191.2,26.9,190.6,26.8,190.2,26.5z
					 M193.9,50.2c-0.5,0.5-1,0.7-1.7,0.7c-0.7,0-1.3-0.2-1.7-0.7c-0.5-0.5-0.7-1-0.7-1.7V32c0-0.7,0.2-1.3,0.7-1.7
					c0.5-0.5,1-0.7,1.7-0.7c0.7,0,1.3,0.2,1.7,0.7c0.5,0.5,0.7,1,0.7,1.7v16.5C194.6,49.2,194.3,49.8,193.9,50.2z"/>
				<path class="st1" d="M218.5,30.2c0.5,0.5,0.7,1,0.7,1.8v24.5c0,0.7-0.2,1.3-0.7,1.7c-0.5,0.5-1,0.7-1.7,0.7
					c-0.7,0-1.3-0.2-1.7-0.7c-0.5-0.5-0.7-1-0.7-1.7v-7.9c-0.7,0.7-1.6,1.4-2.7,1.9s-2.3,0.8-3.6,0.8c-1.8,0-3.5-0.5-5-1.4
					c-1.5-0.9-2.7-2.3-3.5-3.9c-0.9-1.7-1.3-3.6-1.3-5.7c0-2.1,0.4-4,1.3-5.7s2-3,3.5-4c1.5-0.9,3.1-1.4,4.9-1.4
					c1.3,0,2.5,0.2,3.6,0.7c1.1,0.5,2.1,1.1,2.8,1.8c0.1-0.6,0.3-1.1,0.8-1.5c0.4-0.4,1-0.6,1.6-0.6
					C217.5,29.5,218.1,29.8,218.5,30.2z M213,45c1.1-1.3,1.6-2.9,1.6-4.8c0-1.9-0.5-3.5-1.6-4.8c-1.1-1.3-2.5-1.9-4.2-1.9
					c-1.7,0-3.1,0.6-4.2,1.9c-1.1,1.3-1.6,2.9-1.6,4.8c0,1.9,0.5,3.5,1.6,4.8c1.1,1.3,2.5,1.9,4.2,1.9S211.9,46.3,213,45z"/>
			</g>
		</g>
	</g>
</g>
</svg>
