<svg xmlns="http://www.w3.org/2000/svg" viewBox="0 0 221.81 80"><defs><style>.cls-1{fill:#e8d008;}.cls-2,.cls-4{fill:#fff;}.cls-3{font-size:34.19px;font-family:Quicksand-Medium, Quicksand;}.cls-4{font-size:40px;font-family:Quicksand-Bold, Quicksand;font-weight:700;}.cls-5{letter-spacing:0em;}</style></defs><title>arrowAsset 17</title><g id="Layer_2" data-name="Layer 2"><g id="Layer_1-2" data-name="Layer 1"><circle class="cls-1" cx="40" cy="40" r="40"/><path class="cls-2" d="M19.64,21a2,2,0,1,1-2,2v-.29a4,4,0,0,1,4-4v1.15a2.87,2.87,0,0,0-2,.84l-.29.33Zm5.17,0a2,2,0,1,1-2,2v-.29a4,4,0,0,1,4-4v1.15a2.85,2.85,0,0,0-2,.84,4.28,4.28,0,0,0-.29.33Z"/><path class="cls-2" d="M64.39,61.3a2,2,0,1,1,2-2v.29a4,4,0,0,1-4,4V62.45a2.82,2.82,0,0,0,2-.85,2.28,2.28,0,0,0,.29-.33A1.66,1.66,0,0,1,64.39,61.3Zm-5.17,0a2,2,0,1,1,2-2v.29a4,4,0,0,1-4,4V62.45a2.84,2.84,0,0,0,2-.85,2.22,2.22,0,0,0,.28-.33A1.55,1.55,0,0,1,59.22,61.3Z"/><text class="cls-3" transform="translate(26.58 49.97)">Q</text><text class="cls-4" transform="translate(92.69 50.94)">Q<tspan class="cls-5" x="30.2" y="0">t</tspan><tspan x="46.36" y="0">oniq</tspan></text></g></g></svg>